<?xml version="1.0" encoding="UTF-8" standalone="no" ?>
<!DOCTYPE svg PUBLIC "-//W3C//DTD SVG 1.1//EN" "http://www.w3.org/Graphics/SVG/1.1/DTD/svg11.dtd">
<svg xmlns="http://www.w3.org/2000/svg" xmlns:xlink="http://www.w3.org/1999/xlink" version="1.1" width="1200" height="628" viewBox="0 0 1200 628" xml:space="preserve">
<desc>Created with Fabric.js 5.2.4</desc>
<defs>
</defs>
<g transform="matrix(0 0 0 0 0 0)" id="ad012e2a-eea8-47b1-a6b1-abaccedb2528"  >
</g>
<g transform="matrix(1 0 0 1 600 314)" id="50f5bfbb-2f19-4de6-83f8-eb3ac78ac57f"  >
<rect style="stroke: none; stroke-width: 1; stroke-dasharray: none; stroke-linecap: butt; stroke-dashoffset: 0; stroke-linejoin: miter; stroke-miterlimit: 4; fill: rgb(255,255,255); fill-rule: nonzero; opacity: 1; visibility: hidden;" vector-effect="non-scaling-stroke"  x="-600" y="-314" rx="0" ry="0" width="1200" height="628" />
</g>
<g transform="matrix(1.24 0 0 1.24 599.1 85.95)"  >
<path style="stroke: none; stroke-width: 1; stroke-dasharray: none; stroke-linecap: butt; stroke-dashoffset: 0; stroke-linejoin: miter; stroke-miterlimit: 4; fill: rgb(0,24,50); fill-rule: nonzero; opacity: 1;" vector-effect="non-scaling-stroke"  transform=" translate(-480, -87)" d="M 0 104 L 87 158 L 175 125 L 262 131 L 349 163 L 436 163 L 524 168 L 611 174 L 698 136 L 785 104 L 873 125 L 960 147 L 960 0 L 873 0 L 785 0 L 698 0 L 611 0 L 524 0 L 436 0 L 349 0 L 262 0 L 175 0 L 87 0 L 0 0 Z" stroke-linecap="round" />
</g>
<g transform="matrix(1.24 0 0 1.24 599.1 189.68)"  >
<path style="stroke: none; stroke-width: 1; stroke-dasharray: none; stroke-linecap: butt; stroke-dashoffset: 0; stroke-linejoin: miter; stroke-miterlimit: 4; fill: rgb(1,40,59); fill-rule: nonzero; opacity: 1;" vector-effect="non-scaling-stroke"  transform=" translate(-480, -170.5)" d="M 0 185 L 87 195 L 175 212 L 262 217 L 349 206 L 436 239 L 524 233 L 611 222 L 698 185 L 785 147 L 873 190 L 960 190 L 960 145 L 873 123 L 785 102 L 698 134 L 611 172 L 524 166 L 436 161 L 349 161 L 262 129 L 175 123 L 87 156 L 0 102 Z" stroke-linecap="round" />
</g>
<g transform="matrix(1.24 0 0 1.24 599.1 276.56)"  >
<path style="stroke: none; stroke-width: 1; stroke-dasharray: none; stroke-linecap: butt; stroke-dashoffset: 0; stroke-linejoin: miter; stroke-miterlimit: 4; fill: rgb(1,50,69); fill-rule: nonzero; opacity: 1;" vector-effect="non-scaling-stroke"  transform=" translate(-480, -240.5)" d="M 0 228 L 87 249 L 175 287 L 262 309 L 349 303 L 436 336 L 524 298 L 611 282 L 698 260 L 785 255 L 873 287 L 960 255 L 960 188 L 873 188 L 785 145 L 698 183 L 611 220 L 524 231 L 436 237 L 349 204 L 262 215 L 175 210 L 87 193 L 0 183 Z" stroke-linecap="round" />
</g>
<g transform="matrix(1.24 0 0 1.24 599.1 397)"  >
<path style="stroke: none; stroke-width: 1; stroke-dasharray: none; stroke-linecap: butt; stroke-dashoffset: 0; stroke-linejoin: miter; stroke-miterlimit: 4; fill: rgb(2,59,79); fill-rule: nonzero; opacity: 1;" vector-effect="non-scaling-stroke"  transform=" translate(-480, -337.5)" d="M 0 357 L 87 395 L 175 347 L 262 368 L 349 428 L 436 449 L 524 363 L 611 390 L 698 352 L 785 379 L 873 368 L 960 401 L 960 253 L 873 285 L 785 253 L 698 258 L 611 280 L 524 296 L 436 334 L 349 301 L 262 307 L 175 285 L 87 247 L 0 226 Z" stroke-linecap="round" />
</g>
<g transform="matrix(1.24 0 0 1.24 599.1 528.04)"  >
<path style="stroke: none; stroke-width: 1; stroke-dasharray: none; stroke-linecap: butt; stroke-dashoffset: 0; stroke-linejoin: miter; stroke-miterlimit: 4; fill: rgb(2,69,89); fill-rule: nonzero; opacity: 1;" vector-effect="non-scaling-stroke"  transform=" translate(-480, -443)" d="M 0 541 L 87 541 L 175 541 L 262 541 L 349 541 L 436 541 L 524 541 L 611 541 L 698 541 L 785 541 L 873 541 L 960 541 L 960 399 L 873 366 L 785 377 L 698 350 L 611 388 L 524 361 L 436 447 L 349 426 L 262 366 L 175 345 L 87 393 L 0 355 Z" stroke-linecap="round" />
</g>
</svg>